<svg id="Layer_1" height="512" viewBox="0 0 512 512" width="512" xmlns="http://www.w3.org/2000/svg" data-name="Layer 1"><path d="m36.906 91.393v273.35a26.029 26.029 0 0 0 26 26h187.094v28.234a28.139 28.139 0 1 0 12 0v-28.234h187.094a26.029 26.029 0 0 0 26-26v-273.35a26.947 26.947 0 0 0 -.041-53.893h-438.106a26.947 26.947 0 0 0 -.041 53.893zm235.233 355.021a16.139 16.139 0 1 1 -16.139-16.086 16.131 16.131 0 0 1 16.139 16.086zm176.955-67.671h-386.188a14.015 14.015 0 0 1 -14-14v-273.349h414.188v273.349a14.015 14.015 0 0 1 -14 14zm-412.147-329.243h438.106a14.947 14.947 0 0 1 0 29.894h-438.106a14.947 14.947 0 0 1 0-29.894z"/><path d="m410.508 350.21h-14.2v-194.982a8.009 8.009 0 0 0 -8-8h-37.98a8.009 8.009 0 0 0 -8 8v194.982h-18.579v-174.982a8.009 8.009 0 0 0 -8-8h-37.979a8.009 8.009 0 0 0 -8 8v174.982h-18.58v-154.982a8.009 8.009 0 0 0 -8-8h-37.979a8.009 8.009 0 0 0 -8 8v154.982h-18.579v-132.982a8.009 8.009 0 0 0 -8-8h-37.979a8.009 8.009 0 0 0 -8 8v132.982h-29.979v-231.956a6 6 0 1 0 -12 0v243.956h327.834a6 6 0 0 0 0-12zm-56.18-190.982h29.979v190.982h-29.979zm-72.558 20h29.979v170.982h-29.979zm-72.559 20h29.979v150.982h-29.979zm-72.558 22h29.979v128.982h-29.979z"/><path d="m125.062 192.533h43.714a7.958 7.958 0 0 0 3.022-.593l159.302-64.987h64.982a6 6 0 0 0 0-12h-65.764a7.962 7.962 0 0 0 -3.022.593l-159.3 64.987h-42.934a6 6 0 1 0 0 12z"/></svg>